<svg xmlns="http://www.w3.org/2000/svg" enable-background="new 0 0 24 24" viewBox="0 0 24 24" id="wpexplorer"><path fill="#FCC34A" d="M14.939,17.261l-1.871-3.434l0.279,0.1c0.056,0.02,0.113,0.029,0.169,0.029c0.205,0,0.397-0.127,0.47-0.331c0.094-0.26-0.041-0.546-0.301-0.64l-2.533-0.912c-0.261-0.091-0.546,0.041-0.64,0.302c-0.094,0.26,0.041,0.546,0.301,0.64l0.468,0.168l-2.221,4.078c-0.132,0.242-0.042,0.546,0.2,0.679c0.244,0.131,0.546,0.041,0.678-0.2L12,13.955l2.061,3.784C14.152,17.905,14.323,18,14.5,18c0.081,0,0.163-0.02,0.239-0.061C14.981,17.807,15.071,17.503,14.939,17.261z"></path><path fill="#110638" d="M12,24C5.383,24,0,18.617,0,12S5.383,0,12,0s12,5.383,12,12S18.617,24,12,24z M12,1C5.935,1,1,5.935,1,12s4.935,11,11,11s11-4.935,11-11S18.065,1,12,1z"></path><path fill="#110638" d="M10.154,12.223c-0.058,0-0.116-0.01-0.173-0.031l-4.654-1.717c-0.126-0.046-0.229-0.142-0.283-0.265c-0.055-0.122-0.059-0.262-0.009-0.388l1.773-4.506c0.1-0.253,0.386-0.381,0.638-0.285L12.1,6.748c0.126,0.046,0.229,0.142,0.283,0.265c0.055,0.122,0.059,0.262,0.009,0.387l-1.773,4.506C10.542,12.103,10.354,12.223,10.154,12.223z M6.152,9.714l3.716,1.37l1.407-3.575L7.56,6.139L6.152,9.714z"></path><path fill="#110638" d="M14.144,12.921c-0.058,0-0.116-0.01-0.173-0.031l-3.723-1.374c-0.126-0.046-0.228-0.142-0.283-0.265c-0.055-0.122-0.058-0.262-0.009-0.387l1.241-3.154c0.1-0.255,0.383-0.383,0.639-0.286l3.723,1.374c0.126,0.046,0.228,0.142,0.283,0.265c0.055,0.122,0.058,0.262,0.009,0.387l-1.241,3.154C14.532,12.801,14.343,12.921,14.144,12.921z M11.073,10.755l2.785,1.027l0.875-2.224l-2.785-1.027L11.073,10.755z"></path><path fill="#110638" d="M17,13.458c-0.058,0-0.116-0.01-0.173-0.031l-2.679-0.988c-0.126-0.046-0.229-0.142-0.283-0.265c-0.055-0.122-0.059-0.262-0.009-0.388l0.887-2.253c0.1-0.253,0.385-0.381,0.638-0.285l2.679,0.988c0.126,0.046,0.229,0.142,0.283,0.265c0.055,0.122,0.059,0.262,0.009,0.388l-0.887,2.253C17.388,13.338,17.2,13.458,17,13.458z M14.973,11.678l1.741,0.642l0.521-1.322l-1.741-0.642L14.973,11.678z"></path></svg>